<?xml version="1.0" encoding="UTF-8"?>
<!DOCTYPE svg PUBLIC "-//W3C//DTD SVG Tiny 1.2//EN" 
  "http://www.w3.org/Graphics/SVG/1.2/DTD/svg12-tiny.dtd">
<svg xmlns="http://www.w3.org/2000/svg" version="1.2" width="500px" height="500px" baseProfile="tiny-ps" style="shape-rendering:geometricPrecision; text-rendering:geometricPrecision; image-rendering:optimizeQuality; fill-rule:evenodd; clip-rule:evenodd" xmlns:xlink="http://www.w3.org/1999/xlink"><title>Bee-Tech Online</title>
<g><path style="opacity:1" fill="#fefefc" d="M -0.5,-0.5 C 166.167,-0.5 332.833,-0.5 499.5,-0.5C 499.5,166.167 499.5,332.833 499.5,499.5C 332.833,499.5 166.167,499.5 -0.5,499.5C -0.5,332.833 -0.5,166.167 -0.5,-0.5 Z"/></g>
<g><path style="opacity:1" fill="#15160c" d="M 427.5,358.5 C 427.5,359.5 427.5,360.5 427.5,361.5C 294.332,361.833 161.332,361.5 28.5,360.5C 37.4797,336.343 51.4797,315.509 70.5,298C 123.01,249.419 185.01,221.419 256.5,214C 279.194,186.974 304.527,162.64 332.5,141C 347.503,129.498 364.17,121.165 382.5,116C 393.492,114.427 403.992,115.927 414,120.5C 428.266,116.71 442.766,115.543 457.5,117C 468.385,119.201 472.885,125.701 471,136.5C 468.976,143.55 465.642,149.883 461,155.5C 442.213,173.978 421.046,189.145 397.5,201C 378.065,210.718 358.398,219.885 338.5,228.5C 375.524,248.703 401.358,278.703 416,318.5C 420.963,331.551 424.797,344.884 427.5,358.5 Z"/></g>
<g><path style="opacity:1" fill="#f6ac2d" d="M 330.5,347.5 C 323.978,347.823 317.645,347.49 311.5,346.5C 323.876,328.602 334.376,309.602 343,289.5C 346.76,278.341 349.593,267.007 351.5,255.5C 359.019,259.013 365.019,264.346 369.5,271.5C 360.197,298.773 347.197,324.107 330.5,347.5 Z"/></g>
<g><path style="opacity:1" fill="#cd9c3d" d="M 324.5,239.5 C 328.736,239.432 331.069,241.432 331.5,245.5C 330.727,252.756 329.394,259.756 327.5,266.5C 328.825,258.562 329.492,250.562 329.5,242.5C 326.715,243.084 325.048,242.084 324.5,239.5 Z"/></g>
<g><path style="opacity:1" fill="#f8ac2b" d="M 237.5,235.5 C 232.858,241.815 228.191,248.148 223.5,254.5C 227.456,256.041 231.456,257.374 235.5,258.5C 242.655,259.655 249.988,259.822 257.5,259C 258.416,258.722 259.082,258.222 259.5,257.5C 277.918,251.525 296.252,245.025 314.5,238C 318.072,237.153 321.406,237.653 324.5,239.5C 325.048,242.084 326.715,243.084 329.5,242.5C 329.492,250.562 328.825,258.562 327.5,266.5C 318.544,296.421 303.877,323.088 283.5,346.5C 283.167,346.5 282.833,346.5 282.5,346.5C 209.838,344.835 136.838,343.835 63.5,343.5C 67.6102,342.319 71.6102,341.819 75.5,342C 74.8333,341.667 74.1667,341.333 73.5,341C 75.3333,340.833 77.1667,340.667 79,340.5C 111.964,341.794 144.964,342.461 178,342.5C 209.167,342.167 240.333,341.833 271.5,341.5C 199.82,340.767 128.154,339.933 56.5,339C 55.9558,339.717 55.2891,340.217 54.5,340.5C 54.4142,339.504 54.7476,338.671 55.5,338C 69.5095,337.232 83.5095,336.399 97.5,335.5C 101.841,335.342 105.841,334.342 109.5,332.5C 162.078,321.926 195.412,290.926 209.5,239.5C 211.048,239.179 211.715,238.179 211.5,236.5C 220.047,234.966 228.713,233.632 237.5,232.5C 237.5,233.5 237.5,234.5 237.5,235.5 Z"/></g>
<g><path style="opacity:1" fill="#9f7932" d="M 259.5,257.5 C 259.082,258.222 258.416,258.722 257.5,259C 249.988,259.822 242.655,259.655 235.5,258.5C 243.534,258.698 251.534,258.365 259.5,257.5 Z"/></g>
<g><path style="opacity:1" fill="#fcfcfa" d="M 73.5,323.5 C 71.2646,323.795 69.2646,323.461 67.5,322.5C 102.6,285.123 144.6,258.123 193.5,241.5C 194.167,241.833 194.833,242.167 195.5,242.5C 182.702,281.131 156.702,305.964 117.5,317C 103.088,320.968 88.421,323.135 73.5,323.5 Z"/></g>
<g><path style="opacity:1" fill="#cf9a3e" d="M 237.5,235.5 C 237.5,234.5 237.5,233.5 237.5,232.5C 228.713,233.632 220.047,234.966 211.5,236.5C 211.715,238.179 211.048,239.179 209.5,239.5C 209.33,238.178 209.663,237.011 210.5,236C 220.682,232.745 231.015,231.245 241.5,231.5C 240.479,233.188 239.145,234.521 237.5,235.5 Z"/></g>
<g><path style="opacity:1" fill="#f3f3f0" d="M 377.5,125.5 C 382.93,125.161 388.264,125.661 393.5,127C 344.912,148.623 302.245,178.623 265.5,217C 264.833,217.667 264.167,217.667 263.5,217C 281.429,194.403 301.429,173.737 323.5,155C 339.692,141.74 357.692,131.906 377.5,125.5 Z"/></g>
<g><path style="opacity:1" fill="#fcfcfa" d="M 422.5,123.5 C 431.791,122.68 440.791,123.847 449.5,127C 453.842,132.206 454.675,138.04 452,144.5C 443.122,157.712 431.955,168.545 418.5,177C 377.017,204.571 332.017,224.238 283.5,236C 275.167,236.667 266.833,236.667 258.5,236C 257.328,235.581 256.328,234.915 255.5,234C 293.266,194.626 336.266,162.293 384.5,137C 396.763,131.02 409.429,126.52 422.5,123.5 Z"/></g>
<g><path style="opacity:1" fill="#8f9089" d="M 67.5,322.5 C 69.2646,323.461 71.2646,323.795 73.5,323.5C 71.3066,324.797 68.9732,324.797 66.5,323.5C 66.6236,322.893 66.9569,322.56 67.5,322.5 Z"/></g>
<g><path style="opacity:1" fill="#b68b3d" d="M 109.5,332.5 C 105.841,334.342 101.841,335.342 97.5,335.5C 101.159,333.658 105.159,332.658 109.5,332.5 Z"/></g>
<g><path style="opacity:1" fill="#f6ab2d" d="M 381.5,347.5 C 374.978,347.823 368.645,347.49 362.5,346.5C 372.189,330.458 380.856,313.791 388.5,296.5C 392.949,303.064 396.616,310.064 399.5,317.5C 394.484,328.217 388.484,338.217 381.5,347.5 Z"/></g>
<g><path style="opacity:1" fill="#fdac25" d="M 282.5,346.5 C 205.332,346.833 128.332,346.499 51.5,345.5C 52.1103,343.566 53.1103,341.899 54.5,340.5C 55.2891,340.217 55.9558,339.717 56.5,339C 128.154,339.933 199.82,340.767 271.5,341.5C 240.333,341.833 209.167,342.167 178,342.5C 144.964,342.461 111.964,341.794 79,340.5C 77.1667,340.667 75.3333,340.833 73.5,341C 74.1667,341.333 74.8333,341.667 75.5,342C 71.6102,341.819 67.6102,342.319 63.5,343.5C 136.838,343.835 209.838,344.835 282.5,346.5 Z"/></g>
<g><path style="opacity:1" fill="#eeb047" d="M 51.5,345.5 C 128.332,346.499 205.332,346.833 282.5,346.5C 282.833,346.5 283.167,346.5 283.5,346.5C 283.5,347.167 283.167,347.5 282.5,347.5C 204.998,347.833 127.665,347.499 50.5,346.5C 50.5,345.833 50.8333,345.5 51.5,345.5 Z"/></g>
<g><path style="opacity:1" fill="#544114" d="M 50.5,346.5 C 127.665,347.499 204.998,347.833 282.5,347.5C 281.081,348.451 279.415,348.784 277.5,348.5C 203.5,348.5 129.5,348.5 55.5,348.5C 53.396,348.799 51.396,348.466 49.5,347.5C 49.6236,346.893 49.9569,346.56 50.5,346.5 Z"/></g>
<g><path style="opacity:1" fill="#554216" d="M 311.5,346.5 C 317.645,347.49 323.978,347.823 330.5,347.5C 323.989,348.818 317.322,348.818 310.5,347.5C 310.624,346.893 310.957,346.56 311.5,346.5 Z"/></g>
<g><path style="opacity:1" fill="#553f18" d="M 362.5,346.5 C 368.645,347.49 374.978,347.823 381.5,347.5C 374.989,348.818 368.322,348.818 361.5,347.5C 361.624,346.893 361.957,346.56 362.5,346.5 Z"/></g>
<g><path style="opacity:1" fill="#071213" d="M 55.5,348.5 C 129.5,348.5 203.5,348.5 277.5,348.5C 277.611,349.117 277.944,349.617 278.5,350C 241.333,350.167 204.167,350.333 167,350.5C 129.494,350.5 92.3273,349.833 55.5,348.5 Z"/></g>
<g><path style="opacity:1" fill="#4c4d47" d="M 427.5,358.5 C 428.434,359.568 428.768,360.901 428.5,362.5C 294.832,362.833 161.165,362.5 27.5,361.5C 27.6236,360.893 27.9569,360.56 28.5,360.5C 161.332,361.5 294.332,361.833 427.5,361.5C 427.5,360.5 427.5,359.5 427.5,358.5 Z"/></g>
</svg>
